<svg width="24" height="24" viewBox="0 0 24 24" fill="none" xmlns="http://www.w3.org/2000/svg">
<path d="M2 7V2H7V4H4V7H2ZM2 22V17H4V20H7V22H2ZM17 22V20H20V17H22V22H17ZM20 7V4H17V2H22V7H20ZM13.5 9.5C12.95 9.5 12.479 9.304 12.087 8.912C11.695 8.52 11.4993 8.04933 11.5 7.5C11.5 6.95 11.696 6.479 12.088 6.087C12.48 5.695 12.9507 5.49933 13.5 5.5C14.05 5.5 14.521 5.696 14.913 6.088C15.305 6.48 15.5007 6.95067 15.5 7.5C15.5 8.05 15.304 8.521 14.912 8.913C14.52 9.305 14.0493 9.50067 13.5 9.5ZM8.8 18L9.8 12.9L8 13.6V17H6V12.3L9.95 10.6C10.5333 10.35 10.9627 10.1877 11.238 10.113C11.5133 10.0383 11.7673 10.0007 12 10C12.35 10 12.675 10.0917 12.975 10.275C13.275 10.4583 13.5167 10.7 13.7 11L14.7 12.6C15.1333 13.3 15.721 13.875 16.463 14.325C17.205 14.775 18.0507 15 19 15V17C17.9 17 16.8707 16.7707 15.912 16.312C14.9533 15.8533 14.1493 15.2493 13.5 14.5L12.8 18H8.8Z" fill="black"/>
</svg>
