<svg width="256" height="256" viewBox="0 0 256 256" fill="none" xmlns="http://www.w3.org/2000/svg">
<path d="M225.9 58.31L129.9 26.31C128.667 25.8983 127.333 25.8983 126.1 26.31L30.1 58.31C28.9062 58.7086 27.8679 59.4725 27.1321 60.4936C26.3963 61.5147 26.0003 62.7414 26 64V144C26 145.591 26.6321 147.117 27.7574 148.243C28.8826 149.368 30.4087 150 32 150C33.5913 150 35.1174 149.368 36.2426 148.243C37.3679 147.117 38 145.591 38 144V72.32L76.68 85.22C71.8023 92.4286 68.4969 100.583 66.9791 109.154C65.4613 117.724 65.765 126.518 67.8704 134.963C69.9758 143.409 73.8358 151.316 79.1992 158.171C84.5626 165.026 91.3092 170.675 99 174.75C79.75 181.28 63 194.34 51 212.75C50.3102 214.071 50.1368 215.602 50.5136 217.044C50.8903 218.486 51.7903 219.736 53.0382 220.551C54.2861 221.366 55.7926 221.687 57.2643 221.452C58.7361 221.217 60.0677 220.443 61 219.28C76.47 195.59 100.88 182 128 182C155.12 182 179.53 195.59 195 219.28C195.927 220.467 197.266 221.263 198.752 221.509C200.238 221.754 201.762 221.432 203.021 220.606C204.281 219.78 205.183 218.51 205.55 217.049C205.917 215.588 205.72 214.043 205 212.72C193 194.34 176.27 181.28 157 174.72C164.687 170.64 171.429 164.988 176.787 158.131C182.145 151.274 186 143.366 188.101 134.921C190.201 126.476 190.501 117.684 188.979 109.116C187.458 100.547 184.15 92.3955 179.27 85.19L225.9 69.69C227.093 69.2908 228.131 68.5267 228.866 67.5056C229.601 66.4845 229.996 65.2582 229.996 64C229.996 62.7418 229.601 61.5155 228.866 60.4944C228.131 59.4733 227.093 58.7092 225.9 58.31ZM178 120C178.004 127.967 176.103 135.82 172.457 142.904C168.811 149.988 163.524 156.098 157.039 160.725C150.553 165.353 143.055 168.363 135.17 169.505C127.285 170.648 119.241 169.89 111.709 167.294C104.176 164.698 97.373 160.339 91.8661 154.581C86.3592 148.824 82.308 141.833 80.05 134.193C77.792 126.552 77.3926 118.482 78.8851 110.656C80.3775 102.83 83.7186 95.4734 88.63 89.2L126.1 101.69C127.333 102.102 128.667 102.102 129.9 101.69L167.37 89.2C174.268 97.9835 178.012 108.832 178 120ZM128 89.68L51 64L128 38.32L205 64L128 89.68Z" fill="black"/>
</svg>
