<svg
    xmlns="http://www.w3.org/2000/svg"
    viewBox="0 0 360 84"
    id="vector">
    <path
        id="path"
        d="M -120 -20 C -120 22.418 -88.371 63.143 -32.132 93.137 C 24.107 123.131 100.466 140 180 140 C 259.534 140 335.893 123.131 392.132 93.137 C 448.371 63.143 480 22.418 480 -20 C 480 -62.418 448.371 -103.143 392.132 -133.137 C 335.893 -163.131 259.534 -180 180 -180 C 100.466 -180 24.107 -163.131 -32.132 -133.137 C -88.371 -103.143 -120 -62.418 -120 -20 Z"
        fill="#2A2D3E"
        stroke="#00000000"
        stroke-width="1"
        fill-rule="evenodd"/>
    <path
        id="path_1"
        d="M 360 1.097 C 336.2 -3.603 310.871 6.803 284.011 32.315 C 243.722 70.584 228.244 69.217 193.816 55.478 C 159.389 41.739 55.35 33.012 0 64 C -36.9 84.659 -36.9 99.325 0 108 C 53.333 129.333 113.333 140 180 140 C 246.667 140 306.667 129.333 360 108 L 360 1.097 Z"
        fill="#2697FF"
        fill-opacity="0.08"
        stroke="#00000000"
        stroke-width="1"
        fill-rule="evenodd"/>
    <path
        id="path_2"
        d="M 360 19 C 352.582 41.202 331.338 50.823 296.266 47.862 C 243.659 43.422 200.15 29.245 146.721 63.404 C 111.102 86.176 62.195 72.3 0 21.775 L 0 108 C 54.667 129.333 114.667 140 180 140 C 245.333 140 305.333 129.333 360 108 L 360 19 Z"
        fill="#2697FF"
        fill-opacity="0.1"
        stroke="#00000000"
        stroke-width="1"
        fill-rule="evenodd"/>
</svg>
